<mxfile host="65bd71144e">
    <diagram id="zLV8VMqk4421Zo12ci7t" name="第 1 页">
        <mxGraphModel dx="2375" dy="1049" grid="1" gridSize="10" guides="1" tooltips="1" connect="1" arrows="1" fold="1" page="1" pageScale="1" pageWidth="2339" pageHeight="3300" background="none" math="0" shadow="0">
            <root>
                <mxCell id="0"/>
                <mxCell id="1" parent="0"/>
                <mxCell id="3" style="edgeStyle=none;html=1;exitX=0.5;exitY=1;exitDx=0;exitDy=0;entryX=0.5;entryY=0;entryDx=0;entryDy=0;" edge="1" parent="1" source="2">
                    <mxGeometry relative="1" as="geometry">
                        <mxPoint x="265" y="120" as="targetPoint"/>
                    </mxGeometry>
                </mxCell>
                <mxCell id="2" value="开始" style="ellipse;whiteSpace=wrap;html=1;" vertex="1" parent="1">
                    <mxGeometry x="220" y="50" width="90" height="50" as="geometry"/>
                </mxCell>
                <mxCell id="32" value="" style="edgeStyle=none;html=1;fontColor=#000000;" edge="1" parent="1" source="22" target="31">
                    <mxGeometry relative="1" as="geometry"/>
                </mxCell>
                <mxCell id="33" value="是" style="edgeLabel;html=1;align=center;verticalAlign=middle;resizable=0;points=[];fontColor=#000000;" vertex="1" connectable="0" parent="32">
                    <mxGeometry x="-0.4575" y="-3" relative="1" as="geometry">
                        <mxPoint as="offset"/>
                    </mxGeometry>
                </mxCell>
                <mxCell id="35" value="" style="edgeStyle=none;html=1;fontColor=#000000;" edge="1" parent="1" source="22" target="34">
                    <mxGeometry relative="1" as="geometry"/>
                </mxCell>
                <mxCell id="36" value="否" style="edgeLabel;html=1;align=center;verticalAlign=middle;resizable=0;points=[];fontColor=#000000;" vertex="1" connectable="0" parent="35">
                    <mxGeometry x="-0.25" y="-1" relative="1" as="geometry">
                        <mxPoint as="offset"/>
                    </mxGeometry>
                </mxCell>
                <mxCell id="22" value="当前树是否为空" style="rhombus;whiteSpace=wrap;html=1;fontColor=#000000;" vertex="1" parent="1">
                    <mxGeometry x="203.13" y="120" width="123.75" height="60" as="geometry"/>
                </mxCell>
                <mxCell id="82" style="edgeStyle=none;html=1;exitX=0.5;exitY=1;exitDx=0;exitDy=0;fontColor=#000000;" edge="1" parent="1" source="31" target="42">
                    <mxGeometry relative="1" as="geometry"/>
                </mxCell>
                <mxCell id="31" value="创建一个新根节点并插入" style="rounded=1;whiteSpace=wrap;html=1;fontColor=#000000;" vertex="1" parent="1">
                    <mxGeometry x="590.01" y="120" width="120" height="60" as="geometry"/>
                </mxCell>
                <mxCell id="38" value="" style="edgeStyle=none;html=1;fontColor=#000000;" edge="1" parent="1" source="34" target="37">
                    <mxGeometry relative="1" as="geometry"/>
                </mxCell>
                <mxCell id="34" value="按key值插入叶子节点" style="rounded=1;whiteSpace=wrap;html=1;fontColor=#000000;" vertex="1" parent="1">
                    <mxGeometry x="206.885" y="230" width="120" height="60" as="geometry"/>
                </mxCell>
                <mxCell id="40" value="" style="edgeStyle=none;html=1;fontColor=#000000;" edge="1" parent="1" source="37" target="39">
                    <mxGeometry relative="1" as="geometry"/>
                </mxCell>
                <mxCell id="41" value="是" style="edgeLabel;html=1;align=center;verticalAlign=middle;resizable=0;points=[];fontColor=#000000;" vertex="1" connectable="0" parent="40">
                    <mxGeometry x="-0.3263" y="1" relative="1" as="geometry">
                        <mxPoint as="offset"/>
                    </mxGeometry>
                </mxCell>
                <mxCell id="79" style="edgeStyle=none;html=1;exitX=1;exitY=0.5;exitDx=0;exitDy=0;entryX=0.5;entryY=0;entryDx=0;entryDy=0;fontColor=#000000;" edge="1" parent="1" source="37" target="58">
                    <mxGeometry relative="1" as="geometry">
                        <Array as="points">
                            <mxPoint x="420" y="365"/>
                            <mxPoint x="420" y="580"/>
                        </Array>
                    </mxGeometry>
                </mxCell>
                <mxCell id="80" value="否" style="edgeLabel;html=1;align=center;verticalAlign=middle;resizable=0;points=[];fontColor=#000000;" vertex="1" connectable="0" parent="79">
                    <mxGeometry x="-0.2164" y="-2" relative="1" as="geometry">
                        <mxPoint x="-1" as="offset"/>
                    </mxGeometry>
                </mxCell>
                <mxCell id="37" value="叶子节点是否超&lt;br&gt;过最大关键字数" style="rhombus;whiteSpace=wrap;html=1;fontColor=#000000;rounded=1;" vertex="1" parent="1">
                    <mxGeometry x="194.78" y="320" width="140.45" height="90" as="geometry"/>
                </mxCell>
                <mxCell id="47" value="" style="edgeStyle=none;html=1;fontColor=#000000;" edge="1" parent="1" source="39" target="46">
                    <mxGeometry relative="1" as="geometry"/>
                </mxCell>
                <mxCell id="39" value="叶子节点分裂" style="whiteSpace=wrap;html=1;fontColor=#000000;rounded=1;" vertex="1" parent="1">
                    <mxGeometry x="206.885" y="450" width="120" height="60" as="geometry"/>
                </mxCell>
                <mxCell id="42" value="结束" style="ellipse;whiteSpace=wrap;html=1;fontColor=#000000;" vertex="1" parent="1">
                    <mxGeometry x="590" y="770" width="120" height="80" as="geometry"/>
                </mxCell>
                <mxCell id="54" value="" style="edgeStyle=none;html=1;fontColor=#000000;" edge="1" parent="1" source="46" target="53">
                    <mxGeometry relative="1" as="geometry"/>
                </mxCell>
                <mxCell id="55" value="否" style="edgeLabel;html=1;align=center;verticalAlign=middle;resizable=0;points=[];fontColor=#000000;" vertex="1" connectable="0" parent="54">
                    <mxGeometry x="-0.48" y="-3" relative="1" as="geometry">
                        <mxPoint as="offset"/>
                    </mxGeometry>
                </mxCell>
                <mxCell id="76" style="edgeStyle=none;html=1;exitX=0;exitY=0.5;exitDx=0;exitDy=0;entryX=0.5;entryY=1;entryDx=0;entryDy=0;fontColor=#000000;" edge="1" parent="1" source="46" target="68">
                    <mxGeometry relative="1" as="geometry">
                        <Array as="points">
                            <mxPoint x="80" y="580"/>
                            <mxPoint x="80" y="1120"/>
                            <mxPoint x="480" y="1120"/>
                        </Array>
                    </mxGeometry>
                </mxCell>
                <mxCell id="77" value="是" style="edgeLabel;html=1;align=center;verticalAlign=middle;resizable=0;points=[];fontColor=#000000;" vertex="1" connectable="0" parent="76">
                    <mxGeometry x="-0.512" relative="1" as="geometry">
                        <mxPoint as="offset"/>
                    </mxGeometry>
                </mxCell>
                <mxCell id="46" value="分裂前叶子节点&lt;br&gt;是否是根节点" style="rhombus;whiteSpace=wrap;html=1;fontColor=#000000;rounded=1;" vertex="1" parent="1">
                    <mxGeometry x="201.10999999999999" y="540" width="131.55" height="80" as="geometry"/>
                </mxCell>
                <mxCell id="57" value="" style="edgeStyle=none;html=1;fontColor=#000000;" edge="1" parent="1" source="53" target="56">
                    <mxGeometry relative="1" as="geometry"/>
                </mxCell>
                <mxCell id="53" value="将新创建节点插入到其父亲" style="whiteSpace=wrap;html=1;fontColor=#000000;rounded=1;" vertex="1" parent="1">
                    <mxGeometry x="206.885" y="670" width="120" height="60" as="geometry"/>
                </mxCell>
                <mxCell id="59" value="" style="edgeStyle=none;html=1;fontColor=#000000;" edge="1" parent="1" source="56" target="58">
                    <mxGeometry relative="1" as="geometry"/>
                </mxCell>
                <mxCell id="60" value="否" style="edgeLabel;html=1;align=center;verticalAlign=middle;resizable=0;points=[];fontColor=#000000;" vertex="1" connectable="0" parent="59">
                    <mxGeometry x="-0.4426" y="1" relative="1" as="geometry">
                        <mxPoint as="offset"/>
                    </mxGeometry>
                </mxCell>
                <mxCell id="63" value="" style="edgeStyle=none;html=1;fontColor=#000000;" edge="1" parent="1" source="56" target="62">
                    <mxGeometry relative="1" as="geometry"/>
                </mxCell>
                <mxCell id="64" value="是" style="edgeLabel;html=1;align=center;verticalAlign=middle;resizable=0;points=[];fontColor=#000000;" vertex="1" connectable="0" parent="63">
                    <mxGeometry x="-0.4667" relative="1" as="geometry">
                        <mxPoint as="offset"/>
                    </mxGeometry>
                </mxCell>
                <mxCell id="56" value="父亲是否已满" style="rhombus;whiteSpace=wrap;html=1;fontColor=#000000;rounded=1;" vertex="1" parent="1">
                    <mxGeometry x="220.32999999999998" y="770" width="93.12" height="80" as="geometry"/>
                </mxCell>
                <mxCell id="78" style="edgeStyle=none;html=1;exitX=1;exitY=0.5;exitDx=0;exitDy=0;fontColor=#000000;" edge="1" parent="1" source="58" target="42">
                    <mxGeometry relative="1" as="geometry"/>
                </mxCell>
                <mxCell id="58" value="直接插入" style="whiteSpace=wrap;html=1;fontColor=#000000;rounded=1;" vertex="1" parent="1">
                    <mxGeometry x="380.01" y="790" width="79.99" height="40" as="geometry"/>
                </mxCell>
                <mxCell id="69" style="edgeStyle=none;html=1;exitX=0.5;exitY=1;exitDx=0;exitDy=0;fontColor=#000000;" edge="1" parent="1" source="62" target="67">
                    <mxGeometry relative="1" as="geometry"/>
                </mxCell>
                <mxCell id="62" value="先分裂中间节点&lt;br&gt;再插入" style="whiteSpace=wrap;html=1;fontColor=#000000;rounded=1;" vertex="1" parent="1">
                    <mxGeometry x="206.89" y="910" width="120" height="50" as="geometry"/>
                </mxCell>
                <mxCell id="65" value="" style="edgeStyle=none;html=1;fontColor=#000000;" edge="1" parent="1" source="67" target="68">
                    <mxGeometry relative="1" as="geometry"/>
                </mxCell>
                <mxCell id="66" value="是" style="edgeLabel;html=1;align=center;verticalAlign=middle;resizable=0;points=[];fontColor=#000000;" vertex="1" connectable="0" parent="65">
                    <mxGeometry x="-0.3159" y="-4" relative="1" as="geometry">
                        <mxPoint as="offset"/>
                    </mxGeometry>
                </mxCell>
                <mxCell id="74" style="edgeStyle=none;html=1;exitX=0;exitY=0.5;exitDx=0;exitDy=0;entryX=0;entryY=0.5;entryDx=0;entryDy=0;fontColor=#000000;" edge="1" parent="1" source="67" target="53">
                    <mxGeometry relative="1" as="geometry">
                        <Array as="points">
                            <mxPoint x="150" y="1040"/>
                            <mxPoint x="150" y="870"/>
                            <mxPoint x="150" y="700"/>
                        </Array>
                    </mxGeometry>
                </mxCell>
                <mxCell id="75" value="否" style="edgeLabel;html=1;align=center;verticalAlign=middle;resizable=0;points=[];fontColor=#000000;" vertex="1" connectable="0" parent="74">
                    <mxGeometry x="-0.0709" y="-2" relative="1" as="geometry">
                        <mxPoint as="offset"/>
                    </mxGeometry>
                </mxCell>
                <mxCell id="67" value="分裂前中间节点&lt;br&gt;是否是根节点" style="rhombus;whiteSpace=wrap;html=1;fontColor=#000000;rounded=1;" vertex="1" parent="1">
                    <mxGeometry x="201.10999999999999" y="1000" width="131.55" height="80" as="geometry"/>
                </mxCell>
                <mxCell id="81" style="edgeStyle=none;html=1;exitX=1;exitY=0.5;exitDx=0;exitDy=0;entryX=0.5;entryY=1;entryDx=0;entryDy=0;fontColor=#000000;" edge="1" parent="1" source="68" target="42">
                    <mxGeometry relative="1" as="geometry">
                        <Array as="points">
                            <mxPoint x="650" y="1040"/>
                        </Array>
                    </mxGeometry>
                </mxCell>
                <mxCell id="68" value="创建新的根节点并将分裂后两个节点设置为其孩子" style="whiteSpace=wrap;html=1;fontColor=#000000;rounded=1;" vertex="1" parent="1">
                    <mxGeometry x="418.43499999999995" y="1010" width="120" height="60" as="geometry"/>
                </mxCell>
            </root>
        </mxGraphModel>
    </diagram>
</mxfile>